<svg width="40" height="40" viewBox="0 0 40 40" fill="none" xmlns="http://www.w3.org/2000/svg">
<path d="M20 3.33331C29.2 3.33331 36.6667 10.8 36.6667 20C36.6667 29.2 29.2 36.6666 20 36.6666C10.8 36.6666 3.33337 29.2 3.33337 20C3.33337 10.8 10.8 3.33331 20 3.33331ZM10.0389 25.6938C12.4848 29.3448 16.1586 31.6666 20.2662 31.6666C24.3739 31.6666 28.0477 29.3448 30.4935 25.6938C27.8142 23.1953 24.2187 21.6666 20.2662 21.6666C16.3137 21.6666 12.7183 23.1953 10.0389 25.6938ZM20 18.3333C22.7615 18.3333 25 16.0947 25 13.3333C25 10.5719 22.7615 8.33331 20 8.33331C17.2385 8.33331 15 10.5719 15 13.3333C15 16.0947 17.2385 18.3333 20 18.3333Z" fill="black"/>
</svg>
