<svg width="40" height="40" viewBox="0 0 40 40" fill="none" xmlns="http://www.w3.org/2000/svg">
<path d="M12.5 12.5H11.25C9.17893 12.5 7.5 14.1789 7.5 16.25V28.75C7.5 30.8211 9.17893 32.5 11.25 32.5H23.75C25.8211 32.5 27.5 30.8211 27.5 28.75V16.25C27.5 14.1789 25.8211 12.5 23.75 12.5H22.5M12.5 18.75L17.5 23.75M17.5 23.75L22.5 18.75M17.5 23.75L17.5 2.5M27.5 17.5H28.75C30.8211 17.5 32.5 19.1789 32.5 21.25V33.75C32.5 35.8211 30.8211 37.5 28.75 37.5H16.25C14.1789 37.5 12.5 35.8211 12.5 33.75V32.5" stroke="#031945" stroke-width="1.5" stroke-linecap="round" stroke-linejoin="round"/>
</svg>
