<svg width="40" height="40" viewBox="0 0 40 40" fill="none" xmlns="http://www.w3.org/2000/svg">
<path d="M33.75 14.1851C35.2234 14.6591 36.25 16.0653 36.25 17.6804V24.823C36.25 26.7174 34.8377 28.3238 32.9495 28.4778C32.3847 28.5239 31.8181 28.5643 31.25 28.5987V33.75L26.25 28.75C23.9938 28.75 21.7593 28.658 19.5504 28.4777C19.0532 28.4371 18.589 28.2958 18.1749 28.0751M33.75 14.1851C33.4976 14.1039 33.2322 14.05 32.9565 14.0271C30.7453 13.8436 28.5086 13.75 26.2499 13.75C23.9914 13.75 21.7547 13.8436 19.5435 14.0271C17.6583 14.1836 16.25 15.7887 16.25 17.6804V24.8228C16.25 26.2184 17.0164 27.4576 18.1749 28.0751M33.75 14.1851V11.0622C33.75 8.35982 31.8304 6.01774 29.1505 5.66985C25.7464 5.22793 22.275 5 18.7505 5C15.2256 5 11.7539 5.22797 8.34939 5.66998C5.66955 6.01791 3.75 8.35997 3.75 11.0623V21.4377C3.75 24.1401 5.66956 26.4821 8.34941 26.8301C9.31102 26.9549 10.278 27.0627 11.25 27.153V35L18.1749 28.0751" stroke="#031945" stroke-width="1.5" stroke-linecap="round" stroke-linejoin="round"/>
</svg>
