<svg width="40" height="40" viewBox="0 0 40 40" fill="none" xmlns="http://www.w3.org/2000/svg">
<path d="M15 20H21.25M15 25H21.25M15 30H21.25M26.25 31.25H30C32.0711 31.25 33.75 29.5711 33.75 27.5V10.1804C33.75 8.28873 32.3417 6.68359 30.4565 6.52712C29.8344 6.47549 29.2102 6.43097 28.5841 6.39365M18.9159 6.39365C18.808 6.74336 18.75 7.1149 18.75 7.5C18.75 8.19036 19.3096 8.75 20 8.75H27.5C28.1904 8.75 28.75 8.19036 28.75 7.5C28.75 7.1149 28.692 6.74336 28.5841 6.39365M18.9159 6.39365C19.3879 4.86261 20.814 3.75 22.5 3.75H25C26.686 3.75 28.1121 4.86261 28.5841 6.39365M18.9159 6.39365C18.2898 6.43097 17.6656 6.47549 17.0435 6.52712C15.1583 6.68359 13.75 8.28873 13.75 10.1804V13.75M13.75 13.75H8.125C7.08947 13.75 6.25 14.5895 6.25 15.625V34.375C6.25 35.4105 7.08947 36.25 8.125 36.25H24.375C25.4105 36.25 26.25 35.4105 26.25 34.375V15.625C26.25 14.5895 25.4105 13.75 24.375 13.75H13.75ZM11.25 20H11.2625V20.0125H11.25V20ZM11.25 25H11.2625V25.0125H11.25V25ZM11.25 30H11.2625V30.0125H11.25V30Z" stroke="#031945" stroke-width="1.5" stroke-linecap="round" stroke-linejoin="round"/>
</svg>
