<svg width="40" height="40" viewBox="0 0 40 40" fill="none" xmlns="http://www.w3.org/2000/svg">
<path d="M6.63317 26.2957C5.09466 24.477 3.92065 22.34 3.22388 19.9975C5.37604 12.7701 12.0718 7.5 19.9984 7.5C21.6527 7.5 23.2534 7.72954 24.7704 8.15851M10.3793 29.6206C13.1398 31.4407 16.4461 32.5 19.9999 32.5C27.9266 32.5 34.6223 27.2299 36.7745 20.0025C35.588 16.0136 33.0176 12.6205 29.62 10.38M10.3793 29.6206L4.99995 35M10.3793 29.6206L16.4644 23.5355M29.62 10.38L34.9999 5M29.62 10.38L23.5355 16.4645M23.5355 16.4645C24.4403 17.3693 24.9999 18.6193 24.9999 20C24.9999 22.7614 22.7614 25 19.9999 25C18.6192 25 17.3692 24.4404 16.4644 23.5355M23.5355 16.4645L16.4644 23.5355" stroke="white" stroke-width="1.5" stroke-linecap="round" stroke-linejoin="round"/>
</svg>
