<svg width="40" height="40" viewBox="0 0 40 40" fill="none" xmlns="http://www.w3.org/2000/svg">
<path d="M3.39259 20.5373C3.27745 20.1919 3.27734 19.8179 3.39227 19.4724C5.70621 12.5162 12.268 7.5 20.0013 7.5C27.7311 7.5 34.2904 12.5115 36.6072 19.4627C36.7223 19.8081 36.7224 20.1821 36.6075 20.5276C34.2936 27.4838 27.7318 32.5 19.9984 32.5C12.2687 32.5 5.7094 27.4885 3.39259 20.5373Z" stroke="white" stroke-width="1.5" stroke-linecap="round" stroke-linejoin="round"/>
<path d="M25 20C25 22.7614 22.7614 25 20 25C17.2386 25 15 22.7614 15 20C15 17.2386 17.2386 15 20 15C22.7614 15 25 17.2386 25 20Z" stroke="white" stroke-width="1.5" stroke-linecap="round" stroke-linejoin="round"/>
</svg>
