<svg width="40" height="40" viewBox="0 0 40 40" fill="none" xmlns="http://www.w3.org/2000/svg">
<path d="M20 35C26.9876 35 32.8593 30.222 34.5262 23.7549M20 35C13.0124 35 7.1407 30.222 5.47383 23.7549M20 35C24.1421 35 27.5 28.2843 27.5 20C27.5 11.7157 24.1421 5 20 5M20 35C15.8579 35 12.5 28.2843 12.5 20C12.5 11.7157 15.8579 5 20 5M20 5C25.6087 5 30.4983 8.07823 33.0718 12.6374M20 5C14.3913 5 9.50165 8.07823 6.92821 12.6374M33.0718 12.6374C29.5662 15.6673 24.9971 17.5 20 17.5C15.0029 17.5 10.4338 15.6673 6.92821 12.6374M33.0718 12.6374C34.2995 14.8124 35 17.3244 35 20C35 21.2966 34.8355 22.5549 34.5262 23.7549M34.5262 23.7549C30.2223 26.1412 25.2698 27.5 20 27.5C14.7302 27.5 9.77771 26.1412 5.47383 23.7549M5.47383 23.7549C5.16452 22.5549 5 21.2966 5 20C5 17.3244 5.70054 14.8124 6.92821 12.6374" stroke="#AEC2ED" stroke-width="1.5" stroke-linecap="round" stroke-linejoin="round"/>
</svg>
