<svg width="40" height="40" viewBox="0 0 40 40" fill="none" xmlns="http://www.w3.org/2000/svg">
<path d="M12.488 30.8333C11.7804 30.8333 11.1216 30.4392 10.8627 29.7806C10.3058 28.3645 10 26.8221 10 25.2083C10 22.2932 10.9979 19.6111 12.6707 17.4851C12.9222 17.1654 13.2909 16.9701 13.6702 16.8233C14.4583 16.5182 15.1542 15.9661 15.6902 15.2828C16.9788 13.6397 18.6028 12.2723 20.4592 11.2837C21.6628 10.6427 22.7071 9.69047 23.2136 8.4244C23.5679 7.5385 23.75 6.59311 23.75 5.63897V4.58334C23.75 3.89298 24.3096 3.33334 25 3.33334C27.0711 3.33334 28.75 5.01227 28.75 7.08334C28.75 9.00272 28.3174 10.8211 27.5444 12.4462C27.1017 13.3767 27.7227 14.5833 28.7532 14.5833H33.9629C35.6739 14.5833 37.2055 15.74 37.3867 17.4414C37.4616 18.1451 37.5 18.8598 37.5 19.5833C37.5 24.3294 35.8469 28.6893 33.085 32.1187C32.439 32.9209 31.4403 33.3333 30.4104 33.3333H23.7171C22.911 33.3333 22.1101 33.2034 21.3454 32.9485L16.1546 31.2182C15.3899 30.9633 14.589 30.8333 13.7829 30.8333H12.488Z" fill="#0F172A"/>
<path d="M3.88581 17.8785C2.99134 20.1482 2.5 22.6209 2.5 25.2083C2.5 27.2418 2.80347 29.2044 3.3676 31.0533C3.79986 32.47 5.17363 33.3333 6.65481 33.3333H8.16779C8.91033 33.3333 9.36895 32.5029 9.04038 31.837C8.05413 29.8382 7.5 27.588 7.5 25.2083C7.5 22.3614 8.29314 19.6997 9.67051 17.4321C10.0788 16.7599 9.62339 15.8333 8.83686 15.8333H7.08226C5.69556 15.8333 4.39424 16.5884 3.88581 17.8785Z" fill="#0F172A"/>
</svg>
