<svg width="40" height="40" viewBox="0 0 40 40" fill="none" xmlns="http://www.w3.org/2000/svg">
<path d="M11.0543 17.0833C12.3982 17.0833 13.6108 16.3403 14.4402 15.2828C15.7288 13.6397 17.3528 12.2723 19.2092 11.2837C20.4128 10.6427 21.4571 9.69047 21.9636 8.42439C22.3179 7.53849 22.5 6.59311 22.5 5.63896V4.58333C22.5 3.89297 23.0596 3.33333 23.75 3.33333C25.8211 3.33333 27.5 5.01226 27.5 7.08333C27.5 9.00271 27.0674 10.8211 26.2944 12.4462C25.8517 13.3767 26.4727 14.5833 27.5032 14.5833M27.5032 14.5833H32.7129C34.4239 14.5833 35.9555 15.74 36.1367 17.4414C36.2116 18.1451 36.25 18.8597 36.25 19.5833C36.25 24.3294 34.5969 28.6893 31.835 32.1187C31.189 32.9208 30.1903 33.3333 29.1604 33.3333H22.4671C21.661 33.3333 20.8601 33.2034 20.0954 32.9485L14.9046 31.2182C14.1399 30.9633 13.339 30.8333 12.5329 30.8333H9.84034M27.5032 14.5833H23.75M9.84034 30.8333C9.97836 31.1743 10.1286 31.509 10.2904 31.837C10.6189 32.5029 10.1603 33.3333 9.41779 33.3333H7.90481C6.42363 33.3333 5.04986 32.47 4.6176 31.0533C4.05347 29.2044 3.75 27.2418 3.75 25.2083C3.75 22.6209 4.24134 20.1482 5.13581 17.8785C5.64424 16.5884 6.94556 15.8333 8.33226 15.8333H10.0869C10.8734 15.8333 11.3288 16.7598 10.9205 17.4321C9.54314 19.6996 8.75 22.3614 8.75 25.2083C8.75 27.1975 9.1372 29.0963 9.84034 30.8333Z" stroke="#031945" stroke-width="1.5" stroke-linecap="round" stroke-linejoin="round"/>
</svg>
