<svg width="40" height="40" viewBox="0 0 40 40" fill="none" xmlns="http://www.w3.org/2000/svg">
<path d="M6.66665 16.6667H13.3333V23.3333H6.66665V16.6667ZM6.66665 31.6667V26.6667H13.3333V31.6667H6.66665ZM16.6666 31.6667V26.6667H23.3333V31.6667H16.6666ZM26.6666 31.6667V26.6667H33.3333V31.6667H26.6666ZM26.6666 23.3333V16.6667H33.3333V23.3333H26.6666ZM26.6666 13.3333V8.33333H33.3333V13.3333H26.6666ZM23.3333 8.33333V13.3333H16.6666V8.33333H23.3333ZM23.3333 16.6667V23.3333H16.6666V16.6667H23.3333ZM6.66665 13.3333V8.33333H13.3333V13.3333H6.66665ZM4.99998 5C4.07951 5 3.33331 5.7462 3.33331 6.66667V33.3333C3.33331 34.2538 4.07951 35 4.99998 35H35C35.9205 35 36.6666 34.2538 36.6666 33.3333V6.66667C36.6666 5.7462 35.9205 5 35 5H4.99998Z" fill="#031945"/>
</svg>
