<svg width="40" height="40" viewBox="0 0 40 40" fill="none" xmlns="http://www.w3.org/2000/svg">
<path d="M32.0462 31.2205L34.9925 28.2742L37.9387 31.2205C39.5658 32.8477 39.5658 35.4859 37.9387 37.113C36.3115 38.7402 33.6733 38.7402 32.0462 37.113C30.419 35.4859 30.419 32.8477 32.0462 31.2205ZM14.7977 1.79956L33.6538 20.6557C34.3047 21.3065 34.3047 22.3619 33.6538 23.0127L19.5117 37.1549C18.8608 37.8057 17.8055 37.8057 17.1547 37.1549L3.01257 23.0127C2.3617 22.3619 2.3617 21.3065 3.01257 20.6557L15.9762 7.69213L12.4407 4.15659L14.7977 1.79956ZM18.3332 10.0491L6.5481 21.8342H30.1183L18.3332 10.0491Z" fill="#031945"/>
</svg>
