<svg width="40" height="40" viewBox="0 0 40 40" fill="none" xmlns="http://www.w3.org/2000/svg">
<path d="M20 3.33337C29.2037 3.33337 36.6667 9.96301 36.6667 18.1482C36.6667 23.2594 32.5185 27.4074 27.4073 27.4074H24.1297C22.5927 27.4074 21.3518 28.6482 21.3518 30.1852C21.3518 30.8889 21.6297 31.537 22.0555 32.0185C22.5 32.5185 22.7778 33.1667 22.7778 33.8889C22.7778 35.426 21.5 36.6667 20 36.6667C10.7963 36.6667 3.33333 29.2037 3.33333 20C3.33333 10.7963 10.7963 3.33337 20 3.33337ZM18.0185 30.1852C18.0185 26.8072 20.7517 24.074 24.1297 24.074H27.4073C30.6775 24.074 33.3333 21.4184 33.3333 18.1482C33.3333 11.8987 27.4462 6.66671 20 6.66671C12.6372 6.66671 6.66666 12.6373 6.66666 20C6.66666 26.9834 12.0377 32.7142 18.8733 33.2864C18.3247 32.3614 18.0185 31.2935 18.0185 30.1852ZM12.5 20C11.1193 20 10 18.8807 10 17.5C10 16.1193 11.1193 15 12.5 15C13.8807 15 15 16.1193 15 17.5C15 18.8807 13.8807 20 12.5 20ZM27.5 20C26.1193 20 25 18.8807 25 17.5C25 16.1193 26.1193 15 27.5 15C28.8807 15 30 16.1193 30 17.5C30 18.8807 28.8807 20 27.5 20ZM20 15C18.6193 15 17.5 13.8808 17.5 12.5C17.5 11.1193 18.6193 10 20 10C21.3807 10 22.5 11.1193 22.5 12.5C22.5 13.8808 21.3807 15 20 15Z" fill="#031945"/>
</svg>
