<svg width="40" height="40" viewBox="0 0 40 40" fill="none" xmlns="http://www.w3.org/2000/svg">
<path fill-rule="evenodd" clip-rule="evenodd" d="M16.2827 6.28268C15.5182 7.04716 15 8.25085 15 10C15 12.1535 15.726 14.3344 16.8034 15.9505C17.9293 17.6394 19.1571 18.3333 20 18.3333C20.8428 18.3333 22.0707 17.6394 23.1966 15.9505C24.274 14.3344 25 12.1535 25 10C25 8.25085 24.4818 7.04717 23.7173 6.28268C22.9528 5.5182 21.7491 5 20 5C18.2508 5 17.0471 5.5182 16.2827 6.28268ZM25.1587 18.879C25.4515 18.5335 25.7226 18.1706 25.9701 17.7995C27.3926 15.6656 28.3333 12.8465 28.3333 10C28.3333 7.58249 27.6015 5.45284 26.0743 3.92566C24.5471 2.39848 22.4175 1.66667 20 1.66667C17.5825 1.66667 15.4528 2.39848 13.9256 3.92566C12.3984 5.45284 11.6666 7.58249 11.6666 10C11.6666 12.8465 12.6073 15.6656 14.0299 17.7995C14.2773 18.1707 14.5485 18.5336 14.8414 18.8791C13.035 19.2581 11.2025 19.8508 9.54699 20.7072C6.19233 22.4424 3.33386 25.4134 3.33381 29.9999C3.33381 29.9998 3.33381 29.9999 3.33381 29.9999L3.33356 33.333C3.33335 36.0945 5.57199 38.3333 8.33356 38.3333H21.6666C22.5871 38.3333 23.3333 37.5871 23.3333 36.6667C23.3333 35.7462 22.5871 35 21.6666 35H8.33356C7.41303 35 6.66682 34.2537 6.66689 33.3332L6.66714 30.0001C6.66714 27.0867 8.39173 25.0576 11.0785 23.6679C13.8011 22.2595 17.2709 21.6667 20 21.6667C21.8508 21.6667 24.0773 21.9404 26.1853 22.5764C27.0665 22.8422 27.9964 22.3433 28.2623 21.4621C28.5281 20.5809 28.0293 19.6509 27.148 19.3851C26.4892 19.1863 25.8227 19.0184 25.1587 18.879ZM31.6666 25C32.5871 25 33.3333 25.7462 33.3333 26.6667V30H36.6666C37.5871 30 38.3333 30.7462 38.3333 31.6667C38.3333 32.5871 37.5871 33.3333 36.6666 33.3333H33.3333V36.6667C33.3333 37.5871 32.5871 38.3333 31.6666 38.3333C30.7462 38.3333 30 37.5871 30 36.6667V33.3333H26.6666C25.7462 33.3333 25 32.5871 25 31.6667C25 30.7462 25.7462 30 26.6666 30H30V26.6667C30 25.7462 30.7462 25 31.6666 25Z" fill="white"/>
</svg>
