<svg width="40" height="40" viewBox="0 0 40 40" fill="none" xmlns="http://www.w3.org/2000/svg">
<path fill-rule="evenodd" clip-rule="evenodd" d="M16.2827 6.28268C15.5182 7.04716 15 8.25085 15 10C15 12.1535 15.726 14.3344 16.8035 15.9505C17.9294 17.6394 19.1572 18.3333 20 18.3333C20.8429 18.3333 22.0707 17.6394 23.1966 15.9505C24.274 14.3344 25 12.1535 25 10C25 8.25085 24.4818 7.04717 23.7174 6.28268C22.9529 5.5182 21.7492 5 20 5C18.2509 5 17.0472 5.5182 16.2827 6.28268ZM25.5285 18.4189C25.683 18.2161 25.8304 18.0091 25.9701 17.7995C27.3927 15.6656 28.3334 12.8465 28.3334 10C28.3334 7.58249 27.6016 5.45284 26.0744 3.92566C24.5472 2.39848 22.4175 1.66667 20 1.66667C17.5825 1.66667 15.4529 2.39848 13.9257 3.92566C12.3985 5.45284 11.6667 7.58249 11.6667 10C11.6667 12.8465 12.6074 15.6656 14.03 17.7995C14.2774 18.1707 14.5486 18.5336 14.8414 18.8791C13.0351 19.2581 11.2026 19.8508 9.54705 20.7072C6.19239 22.4424 3.33392 25.4134 3.33387 29.9999C3.33387 29.9999 3.33387 29.9999 3.33387 29.9999L3.33362 33.333C3.33341 36.0945 5.57205 38.3334 8.33362 38.3334H16.6667C17.5872 38.3334 18.3334 37.5872 18.3334 36.6667C18.3334 35.7462 17.5872 35 16.6667 35H8.33362C7.41309 35 6.66688 34.2538 6.66695 33.3332L6.6672 30.0001C6.6672 27.0867 8.39179 25.0576 11.0785 23.6679C13.8012 22.2595 17.2709 21.6667 20 21.6667H25C25.9205 21.6667 26.6667 20.9205 26.6667 20C26.6667 19.2642 26.1899 18.6398 25.5285 18.4189ZM29.4532 23.1904C30.4288 22.2148 31.752 21.6667 33.1317 21.6667C34.5114 21.6667 35.8346 22.2148 36.8102 23.1904C37.7858 24.166 38.3339 25.4892 38.3339 26.8689C38.3339 28.2486 37.7858 29.5718 36.8102 30.5474L29.5119 37.8457C29.1993 38.1583 28.7754 38.3339 28.3334 38.3339H23.3367C22.4167 38.3339 21.6706 37.5884 21.67 36.6683L21.6667 31.6683C21.6664 31.2259 21.842 30.8015 22.1549 30.4887L29.4532 23.1904ZM33.1317 25C32.636 25 32.1607 25.1969 31.8102 25.5474L25.0005 32.3571L25.0023 35.0005H27.643L34.4532 28.1904C34.8037 27.8399 35.0006 27.3645 35.0006 26.8689C35.0006 26.3732 34.8037 25.8979 34.4532 25.5474C34.1027 25.1969 33.6274 25 33.1317 25Z" fill="white"/>
</svg>
