<svg width="40" height="40" viewBox="0 0 40 40" fill="none" xmlns="http://www.w3.org/2000/svg">
<path fill-rule="evenodd" clip-rule="evenodd" d="M16.2826 6.28268C15.5182 7.04716 15 8.25085 15 10C15 12.1535 15.726 14.3344 16.8034 15.9505C17.9293 17.6394 19.1571 18.3333 20 18.3333C20.8428 18.3333 22.0706 17.6394 23.1965 15.9505C24.274 14.3344 25 12.1535 25 10C25 8.25085 24.4818 7.04716 23.7173 6.28268C22.9528 5.5182 21.7491 5 20 5C18.2508 5 17.0471 5.5182 16.2826 6.28268ZM25.1586 18.8791C25.4514 18.5336 25.7226 18.1707 25.97 17.7995C27.3926 15.6656 28.3333 12.8465 28.3333 10C28.3333 7.58249 27.6015 5.45284 26.0743 3.92566C24.5471 2.39847 22.4175 1.66667 20 1.66667C17.5824 1.66667 15.4528 2.39847 13.9256 3.92566C12.3984 5.45284 11.6666 7.58249 11.6666 10C11.6666 12.8465 12.6073 15.6656 14.0299 17.7995C14.2773 18.1707 14.5485 18.5336 14.8413 18.8791C13.035 19.2581 11.2024 19.8508 9.54679 20.7071C6.19205 22.4424 3.33343 25.4134 3.33338 29.9999C3.33338 29.9998 3.33338 29.9999 3.33338 29.9999L3.33313 33.333C3.33292 36.0945 5.57156 38.3333 8.33313 38.3333H31.6667C34.4281 38.3333 36.6667 36.0948 36.6667 33.3333V30C36.6667 25.4134 33.808 22.4424 30.4532 20.7071C28.7976 19.8508 26.965 19.2581 25.1586 18.8791ZM20 21.6667C17.2709 21.6667 13.801 22.2595 11.0782 23.6679C8.39136 25.0576 6.66671 27.0866 6.66671 30L6.66646 33.3332C6.66639 34.2537 7.41261 35 8.33313 35H31.6667C32.5872 35 33.3334 34.2538 33.3334 33.3333V30C33.3334 27.0866 31.6087 25.0576 28.9218 23.6679C26.1989 22.2595 22.7291 21.6667 20 21.6667Z" fill="#AEC2ED"/>
</svg>
