<svg width="40" height="40" viewBox="0 0 40 40" fill="none" xmlns="http://www.w3.org/2000/svg">
<path fill-rule="evenodd" clip-rule="evenodd" d="M16.2827 6.28267C15.5182 7.04716 15 8.25084 15 10C15 12.1535 15.726 14.3344 16.8034 15.9505C17.9293 17.6394 19.1571 18.3333 20 18.3333C20.8428 18.3333 22.0707 17.6394 23.1966 15.9505C24.274 14.3344 25 12.1535 25 10C25 8.25084 24.4818 7.04716 23.7173 6.28268C22.9528 5.51819 21.7491 5 20 5C18.2508 5 17.0471 5.51819 16.2827 6.28267ZM24.8244 19.2554C25.2474 18.8012 25.631 18.3081 25.9701 17.7995C27.3927 15.6656 28.3333 12.8465 28.3333 10C28.3333 7.58248 27.6015 5.45284 26.0743 3.92565C24.5471 2.39847 22.4175 1.66666 20 1.66666C17.5825 1.66666 15.4528 2.39847 13.9256 3.92565C12.3985 5.45284 11.6667 7.58248 11.6667 10C11.6667 12.8465 12.6073 15.6656 14.0299 17.7995C14.2773 18.1707 14.5485 18.5336 14.8414 18.8791C13.035 19.2581 11.2024 19.8508 9.54682 20.7071C6.19208 22.4424 3.33346 25.4134 3.33341 29.9999C3.33341 29.9998 3.33341 29.9999 3.33341 29.9999L3.33316 33.333C3.33295 36.0945 5.57159 38.3333 8.33316 38.3333H23.3329C24.2534 38.3333 24.9996 37.5871 24.9996 36.6667C24.9996 35.7462 24.2534 35 23.3329 35H8.33316C7.41264 35 6.66642 34.2537 6.66649 33.3332L6.66674 30.0001C6.66674 27.0867 8.39139 25.0576 11.0782 23.6679C13.801 22.2595 17.2709 21.6667 20 21.6667H23.3329C24.2534 21.6667 24.9996 20.9205 24.9996 20C24.9996 19.7324 24.9365 19.4795 24.8244 19.2554ZM29.0671 26.3354C30.3488 24.5565 32.9855 24.5534 34.2657 26.3347ZM36.9719 24.3885C34.3555 20.7492 28.9677 20.7698 26.3618 24.3879C24.4321 27.0697 24.5632 30.8395 26.6938 33.362L30.3934 37.7421C30.7101 38.117 31.1759 38.3333 31.6667 38.3333C32.1574 38.3333 32.6233 38.117 32.9399 37.7421L36.6395 33.3619C38.77 30.8394 38.9017 27.0703 36.9719 24.3885ZM29.0671 26.3354C28.023 27.787 28.1047 29.8666 29.2403 31.211L31.6667 34.0837L34.093 31.2111C35.2287 29.8663 35.3102 27.7862 34.2657 26.3347" fill="#031945"/>
</svg>
