<svg width="40" height="40" viewBox="0 0 40 40" fill="none" xmlns="http://www.w3.org/2000/svg">
<path fill-rule="evenodd" clip-rule="evenodd" d="M16.2827 6.28268C15.5182 7.04716 15 8.25085 15 10C15 12.1535 15.726 14.3344 16.8034 15.9505C17.9293 17.6394 19.1572 18.3333 20 18.3333C20.8429 18.3333 22.0707 17.6394 23.1966 15.9505C24.274 14.3344 25 12.1535 25 10C25 8.25085 24.4818 7.04717 23.7173 6.28268C22.9528 5.5182 21.7492 5 20 5C18.2509 5 17.0472 5.5182 16.2827 6.28268ZM25.1587 18.879C25.4515 18.5335 25.7227 18.1706 25.9701 17.7995C27.3927 15.6656 28.3333 12.8465 28.3333 10C28.3333 7.58249 27.6015 5.45284 26.0743 3.92566C24.5472 2.39848 22.4175 1.66667 20 1.66667C17.5825 1.66667 15.4528 2.39848 13.9257 3.92566C12.3985 5.45284 11.6667 7.58249 11.6667 10C11.6667 12.8465 12.6073 15.6656 14.0299 17.7995C14.2774 18.1707 14.5485 18.5336 14.8414 18.8791C13.0351 19.2581 11.2026 19.8508 9.54702 20.7072C6.19236 22.4424 3.33389 25.4134 3.33384 29.9999C3.33384 29.9998 3.33384 29.9999 3.33384 29.9999L3.33359 33.333C3.33338 36.0945 5.57202 38.3333 8.33359 38.3333H21.6667C22.5871 38.3333 23.3333 37.5871 23.3333 36.6667C23.3333 35.7462 22.5871 35 21.6667 35H8.33359C7.41306 35 6.66685 34.2537 6.66692 33.3332L6.66717 30.0001C6.66717 27.0867 8.39176 25.0576 11.0785 23.6679C13.8012 22.2595 17.2709 21.6667 20 21.6667C21.8508 21.6667 24.0774 21.9404 26.1853 22.5764C27.0665 22.8422 27.9964 22.3433 28.2623 21.4621C28.5282 20.5809 28.0293 19.6509 27.1481 19.3851C26.4892 19.1863 25.8228 19.0184 25.1587 18.879ZM32.8452 25.4882C33.4961 26.139 33.4961 27.1943 32.8452 27.8452L30.6904 30H36.6667C37.5871 30 38.3333 30.7462 38.3333 31.6667C38.3333 32.5871 37.5871 33.3333 36.6667 33.3333H30.6904L32.8452 35.4882C33.4961 36.139 33.4961 37.1943 32.8452 37.8452C32.1943 38.4961 31.139 38.4961 30.4882 37.8452L25.4882 32.8452C24.8373 32.1943 24.8373 31.139 25.4882 30.4882L30.4882 25.4882C31.139 24.8373 32.1943 24.8373 32.8452 25.4882Z" fill="white"/>
</svg>
