<svg width="40" height="40" viewBox="0 0 40 40" fill="none" xmlns="http://www.w3.org/2000/svg">
<path fill-rule="evenodd" clip-rule="evenodd" d="M16.2827 6.28267C15.5182 7.04715 15 8.25084 15 9.99999C15 12.1535 15.726 14.3344 16.8034 15.9505C17.9293 17.6393 19.1571 18.3333 20 18.3333C20.8428 18.3333 22.0707 17.6393 23.1966 15.9505C24.274 14.3344 25 12.1535 25 9.99999C25 8.25084 24.4818 7.04715 23.7173 6.28267C22.9528 5.51818 21.7491 4.99999 20 4.99999C18.2508 4.99999 17.0471 5.51818 16.2827 6.28267ZM25.1775 18.8567C25.4631 18.5179 25.728 18.1626 25.9701 17.7995C27.3926 15.6656 28.3333 12.8465 28.3333 9.99999C28.3333 7.58248 27.6015 5.45283 26.0743 3.92564C24.5471 2.39846 22.4175 1.66666 20 1.66666C17.5825 1.66666 15.4528 2.39846 13.9256 3.92565C12.3984 5.45283 11.6666 7.58248 11.6666 9.99999C11.6666 12.8465 12.6073 15.6656 14.0299 17.7995C14.2773 18.1707 14.5485 18.5336 14.8414 18.8791C13.035 19.2581 11.2025 19.8508 9.54699 20.7071C6.19233 22.4424 3.33386 25.4134 3.33381 29.9999C3.33381 29.9998 3.33381 29.9999 3.33381 29.9999L3.33356 33.3329C3.33335 36.0945 5.57199 38.3333 8.33356 38.3333H20C20.9204 38.3333 21.6666 37.5871 21.6666 36.6667C21.6666 35.7462 20.9204 35 20 35H8.33356C7.41303 35 6.66682 34.2537 6.66689 33.3332L6.66714 30.0001C6.66714 27.0867 8.39173 25.0576 11.0785 23.6678C13.8011 22.2595 17.2709 21.6667 20 21.6667C23.4118 21.6667 27.8702 22.5237 30.6528 24.6562C31.3834 25.2161 32.4296 25.0777 32.9895 24.3471C33.5494 23.6165 33.411 22.5704 32.6804 22.0105C30.5462 20.3749 27.8211 19.3898 25.1775 18.8567ZM35.4881 28.8215C36.139 28.1706 37.1943 28.1706 37.8452 28.8215C38.496 29.4723 38.496 30.5276 37.8452 31.1785L31.1785 37.8452C30.5276 38.496 29.4723 38.496 28.8215 37.8452L25.4881 34.5118C24.8373 33.861 24.8373 32.8057 25.4881 32.1548C26.139 31.5039 27.1943 31.5039 27.8452 32.1548L30 34.3096L35.4881 28.8215Z" fill="white"/>
</svg>
