<svg width="40" height="40" viewBox="0 0 40 40" fill="none" xmlns="http://www.w3.org/2000/svg">
<path d="M28.3333 31.6667H31.6667V23.3333H16.6667V8.33333H8.33333V11.6667H11.6667V15H8.33333V18.3333H13.3333V21.6667H8.33333V25H11.6667V28.3333H8.33333V31.6667H11.6667V28.3333H15V31.6667H18.3333V26.6667H21.6667V31.6667H25V28.3333H28.3333V31.6667ZM20 20H33.3333C34.2538 20 35 20.7462 35 21.6667V33.3333C35 34.2538 34.2538 35 33.3333 35H6.66667C5.7462 35 5 34.2538 5 33.3333V6.66667C5 5.7462 5.7462 5 6.66667 5H18.3333C19.2538 5 20 5.7462 20 6.66667V20Z" fill="#031945"/>
</svg>
