<svg width="40" height="40" viewBox="0 0 40 40" fill="none" xmlns="http://www.w3.org/2000/svg">
<path d="M27.0833 35V27.0588C27.0833 25.5969 25.8941 24.4118 24.4271 24.4118H15.5729C14.1059 24.4118 12.9167 25.5969 12.9167 27.0588V35M27.0833 5.47552V9.41176C27.0833 10.8737 25.8941 12.0588 24.4271 12.0588H15.5729C14.1059 12.0588 12.9167 10.8737 12.9167 9.41176V5M27.0833 5.47552C26.3988 5.16509 25.6494 5 24.8828 5H12.9167M27.0833 5.47552C27.657 5.73568 28.1851 6.09792 28.6393 6.55061L32.6107 10.5082C33.607 11.5011 34.1667 12.8476 34.1667 14.2517V29.7059C34.1667 32.6297 31.7882 35 28.8542 35H11.1458C8.21182 35 5.83333 32.6297 5.83333 29.7059V10.2941C5.83333 7.37026 8.21182 5 11.1458 5H12.9167" stroke="#031945" stroke-width="1.5" stroke-linecap="round" stroke-linejoin="round"/>
</svg>
