<svg width="44" height="44" viewBox="0 0 44 44" fill="none" xmlns="http://www.w3.org/2000/svg">
<path d="M26 26L31 31" stroke="#031945" stroke-width="3.5" stroke-linejoin="round"/>
<path d="M30.8668 35.0504C29.7114 33.895 29.7114 32.0218 30.8668 30.8666C30.8668 30.8666 33.8952 29.7112 35.0506 30.8666L41.1336 36.9496C42.289 38.105 42.289 39.9782 41.1336 41.1334C39.9784 42.2888 38.1052 42.2888 36.9498 41.1334L30.8668 35.0504Z" stroke="#031945" stroke-width="3.5" stroke-linecap="round"/>
<path d="M29.9999 16C29.9999 8.26803 23.732 2 16 2C8.26801 2 2 8.26803 2 16C2 23.732 8.26801 30 16 30C23.732 30 29.9999 23.732 29.9999 16Z" stroke="#031945" stroke-width="3.5" stroke-linejoin="round"/>
</svg>
