<svg width="40" height="40" viewBox="0 0 40 40" fill="none" xmlns="http://www.w3.org/2000/svg">
<path d="M17.2377 6.56671C17.3883 5.66261 18.1706 4.99996 19.0871 4.99996H20.9104C21.827 4.99996 22.6092 5.66261 22.7599 6.56671L23.0082 8.0564C23.126 8.76352 23.6476 9.3306 24.3097 9.60549C24.972 9.8805 25.7326 9.84377 26.3162 9.42692L27.5455 8.54885C28.2913 8.01611 29.313 8.10066 29.9611 8.74878L31.2504 10.038C31.8985 10.6861 31.9831 11.7078 31.4503 12.4537L30.5719 13.6834C30.1552 14.2668 30.1185 15.0272 30.3934 15.6893C30.6682 16.3513 31.2351 16.8727 31.9421 16.9905L33.432 17.2388C34.3361 17.3895 34.9988 18.1718 34.9988 19.0883V20.9116C34.9988 21.8282 34.3361 22.6104 33.432 22.7611L31.9423 23.0094C31.2352 23.1272 30.6681 23.6488 30.3933 24.3108C30.1183 24.9732 30.155 25.7337 30.5718 26.3173L31.4497 27.5464C31.9825 28.2922 31.8979 29.3139 31.2498 29.962L29.9606 31.2513C29.3124 31.8994 28.2908 31.9839 27.5449 31.4512L26.3156 30.5731C25.7321 30.1563 24.9717 30.1196 24.3095 30.3945C23.6475 30.6693 23.1261 31.2363 23.0082 31.9433L22.7599 33.4332C22.6092 34.3373 21.827 35 20.9104 35H19.0871C18.1706 35 17.3883 34.3373 17.2377 33.4332L16.9894 31.9435C16.8715 31.2364 16.35 30.6693 15.6879 30.3944C15.0256 30.1194 14.265 30.1562 13.6814 30.573L12.4521 31.4511C11.7062 31.9839 10.6845 31.8993 10.0364 31.2512L8.74718 29.962C8.09907 29.3138 8.01451 28.2922 8.54726 27.5463L9.42564 26.3166C9.84238 25.7331 9.87912 24.9728 9.60421 24.3106C9.32939 23.6487 8.76244 23.1272 8.05548 23.0094L6.56553 22.7611C5.66143 22.6104 4.99878 21.8282 4.99878 20.9116V19.0883C4.99878 18.1718 5.66143 17.3895 6.56553 17.2388L8.05521 16.9906C8.76233 16.8727 9.32942 16.3512 9.60431 15.6891C9.87932 15.0267 9.8426 14.2661 9.42574 13.6825L8.54791 12.4536C8.01516 11.7077 8.09972 10.686 8.74784 10.0379L10.0371 8.74867C10.6852 8.10055 11.7069 8.016 12.4527 8.54874L13.6821 9.42684C14.2655 9.84359 15.0259 9.88033 15.6881 9.6054C16.3501 9.33058 16.8715 8.76361 16.9893 8.05663L17.2377 6.56671Z" stroke="#AEC2ED" stroke-width="1.5" stroke-linecap="round" stroke-linejoin="round"/>
<path d="M24.9999 20C24.9999 22.7614 22.7614 25 19.9999 25C17.2385 25 14.9999 22.7614 14.9999 20C14.9999 17.2386 17.2385 15 19.9999 15C22.7614 15 24.9999 17.2386 24.9999 20Z" stroke="#AEC2ED" stroke-width="1.5" stroke-linecap="round" stroke-linejoin="round"/>
</svg>
