<svg width="40" height="40" viewBox="0 0 40 40" fill="none" xmlns="http://www.w3.org/2000/svg">
<path d="M30 15L28.6003 28.9967C28.3882 31.1175 28.2822 32.178 27.8008 32.9792C27.3769 33.6848 26.7534 34.2491 26.009 34.6008C25.1639 35 24.0982 35 21.9667 35H18.0332C15.9018 35 14.8361 35 13.991 34.6008C13.2466 34.2491 12.6231 33.6848 12.1992 32.9792C11.7178 32.178 11.6118 31.1175 11.3997 28.9967L10 15" stroke="#031945" stroke-width="1.5" stroke-linecap="round" stroke-linejoin="round"/>
<path d="M22.5 25.8333V17.5" stroke="#031945" stroke-width="1.5" stroke-linecap="round" stroke-linejoin="round"/>
<path d="M17.5 25.8333V17.5" stroke="#031945" stroke-width="1.5" stroke-linecap="round" stroke-linejoin="round"/>
<path d="M7.5 10.8333H15.1923M15.1923 10.8333L15.8352 6.38079C16.0225 5.56929 16.6955 5 17.4677 5H22.5323C23.3045 5 23.9775 5.56929 24.1648 6.38079L24.8077 10.8333M15.1923 10.8333H24.8077M24.8077 10.8333H32.5" stroke="#031945" stroke-width="1.5" stroke-linecap="round" stroke-linejoin="round"/>
</svg>
